<svg xmlns="http://www.w3.org/2000/svg" width="512" height="512" viewBox="0 0 512 512" version="1.1">
	<path d="M 35.742 144.167 C 27.979 148.785, 26.197 158.511, 31.875 165.266 C 35.949 170.114, 72.061 192.972, 89.400 201.679 C 92.205 203.088, 94.638 204.362, 94.807 204.510 C 94.976 204.659, 83.388 228.228, 69.057 256.886 C 40.854 313.284, 40.735 313.599, 45.016 320.526 C 49.383 327.592, 60.181 329.041, 66.178 323.364 C 68.167 321.481, 78.079 302.765, 95.109 268.740 L 121.014 216.979 124.757 218.589 C 132.180 221.783, 148.711 227.820, 159 231.096 C 164.775 232.934, 169.629 234.506, 169.786 234.589 C 169.943 234.671, 163.756 259.991, 156.036 290.856 C 148.316 321.720, 142 347.897, 142 349.026 C 142 353.331, 145.976 359.086, 150.309 361.053 C 152.614 362.100, 155.370 362.966, 156.434 362.978 C 159.774 363.016, 166.472 359.164, 168.224 356.197 C 169.149 354.633, 176.178 328.271, 183.846 297.616 C 191.514 266.961, 197.947 241.726, 198.143 241.539 C 198.340 241.351, 201.875 241.800, 206 242.536 C 210.125 243.272, 219.912 244.448, 227.750 245.148 L 242 246.423 242 303.063 L 242 359.704 244.270 363.102 C 250.269 372.082, 262.448 371.874, 268.044 362.696 C 269.915 359.628, 269.993 357.238, 269.996 302.947 L 270 246.393 283.750 245.145 C 291.313 244.458, 301.083 243.265, 305.463 242.494 C 309.843 241.723, 313.603 241.270, 313.820 241.486 C 314.036 241.703, 320.486 266.961, 328.154 297.616 C 335.822 328.271, 342.851 354.633, 343.776 356.197 C 345.528 359.164, 352.226 363.016, 355.566 362.978 C 356.630 362.966, 359.386 362.100, 361.691 361.053 C 366.024 359.086, 370 353.331, 370 349.026 C 370 347.897, 363.684 321.720, 355.964 290.856 C 348.244 259.991, 342.057 234.648, 342.214 234.536 C 342.371 234.425, 347.225 232.860, 353 231.058 C 361.011 228.559, 383.893 220.024, 390.213 217.179 C 390.605 217.003, 402.596 240.178, 416.861 268.679 C 433.912 302.748, 443.833 321.481, 445.822 323.364 C 451.819 329.041, 462.617 327.592, 466.984 320.526 C 471.265 313.599, 471.146 313.284, 442.943 256.886 C 428.612 228.228, 417.024 204.679, 417.193 204.555 C 417.362 204.431, 421.550 202.149, 426.500 199.484 C 445.759 189.117, 473.513 171.704, 478.769 166.689 C 486.318 159.488, 484.415 147.745, 475.012 143.506 C 468.752 140.683, 465.408 141.864, 448.659 152.818 C 316.286 239.395, 195.228 239.378, 63.248 152.763 C 45.845 141.343, 42.333 140.245, 35.742 144.167" stroke="none" fill="black" fill-rule="evenodd"/>
</svg>