<svg xmlns="http://www.w3.org/2000/svg" width="512" height="512" viewBox="0 0 512 512" version="1.1">
	<path d="M 392.945 1.470 C 389.049 3.589, 386.684 8.778, 387.215 14.045 C 387.462 16.495, 391.954 30.921, 397.196 46.103 L 406.728 73.705 401.811 75.278 C 396.989 76.820, 396.878 76.808, 396.074 74.675 C 395.624 73.479, 391.365 61.076, 386.610 47.113 C 381.855 33.151, 377.290 20.306, 376.466 18.569 C 373.539 12.401, 364.380 9.739, 358.759 13.422 C 355.819 15.348, 353 20.633, 353 24.218 C 353 25.546, 357.479 39.652, 362.953 55.564 C 368.427 71.475, 372.590 84.779, 372.203 85.126 C 370.948 86.255, 363.883 88.217, 363.273 87.606 C 362.947 87.280, 358.258 74.104, 352.855 58.327 C 342.336 27.614, 340.739 24.605, 334.331 23.402 C 329.649 22.524, 326.129 23.650, 322.962 27.041 C 317.800 32.566, 318.012 33.938, 328.981 65.995 C 334.492 82.099, 339 95.584, 339 95.962 C 339 96.340, 336.863 97.315, 334.250 98.130 L 329.500 99.611 319.352 70.091 C 307.348 35.173, 306.626 34.088, 296 34.991 C 294.625 35.108, 292.688 35.637, 291.696 36.166 C 288.879 37.668, 286.006 43.149, 286.017 47 C 286.023 48.925, 290.434 63.315, 295.820 78.977 L 305.612 107.454 302.306 110.761 C 297.276 115.791, 297.442 119.157, 303.617 137.354 C 312.368 163.146, 323.381 181.398, 339.630 197.044 C 351.377 208.355, 363.812 216.713, 375.275 221.002 C 378.322 222.142, 381.034 223.620, 381.301 224.287 C 384.945 233.368, 484.205 463.356, 485.098 464.786 C 490.189 472.938, 504.370 471.172, 507.105 462.045 C 508.261 458.186, 506.804 451.962, 476.247 330.247 L 444.176 202.500 447.519 197.434 C 462.909 174.115, 467.070 136.285, 457.850 103.500 C 456.767 99.650, 454.036 90.875, 451.780 84 C 446.241 67.116, 443.637 64.418, 433.406 64.962 L 430.311 65.126 420.485 36.313 C 415.081 20.466, 410.035 6.526, 409.271 5.336 C 406.283 0.679, 398.004 -1.282, 392.945 1.470 M 76.500 12.366 C 64.932 15.332, 55.857 22.858, 50.686 33.775 L 47.500 40.500 47.173 71.946 L 46.846 103.393 40.753 110.946 C 27.483 127.395, 16.888 146.476, 10.617 165.218 C 3.893 185.316, 4 182.778, 4 322.329 C 4 411.496, 4.326 449.438, 5.124 453.201 C 7.590 464.821, 14.732 474.107, 24.852 478.852 L 30.500 481.500 75.942 481.789 L 121.385 482.078 130.442 490.828 C 140.953 500.983, 148.788 507.341, 154.177 510.090 C 157.872 511.976, 160.364 512.029, 232.747 511.769 L 307.500 511.500 313.796 507.182 C 335.135 492.545, 359.297 461.761, 372.559 432.313 C 374.865 427.193, 377.273 422.375, 377.911 421.607 C 378.549 420.838, 384.118 417.392, 390.286 413.948 C 414.529 400.411, 424.926 384.408, 426.653 357.967 C 427.370 346.988, 426.144 343.278, 420.701 339.960 C 417.800 338.190, 415.567 338.007, 396.857 338.004 C 373.938 338, 375 338.338, 375 331.046 C 375 324.692, 370.217 307.955, 366.061 299.763 C 356.167 280.264, 339.602 265.525, 316.221 255.416 C 307.437 251.619, 290.629 246.998, 285.622 247.004 C 278.530 247.012, 272.075 254.627, 273.428 261.390 C 273.761 263.056, 275.988 266.912, 278.377 269.959 C 284.656 277.970, 287 283.099, 287 288.825 C 287 292.334, 286.386 294.510, 284.844 296.471 C 282.023 300.058, 279.544 299.649, 264.608 293.132 C 243.594 283.963, 231.019 281.467, 209.504 282.197 L 196.180 282.649 195.730 235.574 C 195.228 183.172, 194.978 180.836, 187.718 160.952 C 180.850 142.139, 167.832 120.054, 156.623 108.197 L 153.500 104.894 152.948 73.197 C 152.438 43.966, 152.230 41.087, 150.274 36.197 C 146.202 26.020, 138.652 18.297, 128.712 14.138 C 122.788 11.660, 121.550 11.529, 102 11.312 C 87.903 11.155, 79.938 11.484, 76.500 12.366 M 80.020 37.752 C 78.106 38.713, 75.518 41.029, 74.270 42.898 C 72.062 46.203, 72 46.975, 72 71.148 L 72 96 100.062 96 L 128.125 96 127.812 70.750 C 127.512 46.489, 127.413 45.378, 125.270 42.373 C 121.295 36.801, 118.098 36, 99.849 36.002 C 86.280 36.003, 82.908 36.300, 80.020 37.752 M 377.096 110.093 C 349.923 119.378, 327.507 127.159, 327.282 127.384 C 326.435 128.232, 334.948 149.062, 338.924 155.871 C 351.251 176.977, 370.529 193.730, 388.695 199.123 C 392.754 200.328, 397.080 202.353, 398.386 203.659 C 399.747 205.019, 409.771 226.981, 422.050 255.499 C 433.767 282.714, 443.470 304.863, 443.613 304.720 C 443.756 304.577, 438.014 281.070, 430.854 252.480 C 421.491 215.097, 417.972 199.448, 418.322 196.753 C 418.637 194.326, 420.215 191.327, 422.799 188.240 C 439.573 168.205, 442.312 132.501, 429.755 97.556 C 428.975 95.387, 427.924 93.522, 427.419 93.412 C 426.913 93.301, 404.268 100.808, 377.096 110.093 M 60.789 126.250 C 47.812 141.545, 37.984 160.175, 32.169 180.500 L 29.594 189.500 29.243 316 C 29.049 385.575, 29.179 444.486, 29.531 446.913 C 29.957 449.848, 31.121 452.275, 33.009 454.163 L 35.846 457 69.423 457 C 87.890 457, 103 456.776, 103 456.502 C 103 456.229, 100.814 452.066, 98.143 447.252 C 88.793 430.403, 82.561 414.269, 76.993 392.500 C 72.636 375.461, 68.742 351.729, 69.692 348 C 71.825 339.626, 75.815 338.017, 94.651 337.935 L 109.500 337.870 115 329.343 C 125.596 312.915, 144.332 297.804, 162.832 290.765 L 171.163 287.594 170.745 239.547 C 170.328 191.716, 170.315 191.455, 167.731 181.500 C 162.851 162.692, 155.155 147.296, 142.224 130.469 L 134.947 121 100.095 121 L 65.243 121 60.789 126.250 M 312.278 285.033 C 314.406 300.900, 303.963 318.261, 289.753 322.481 C 279.613 325.492, 273.795 324.530, 256.335 316.954 C 236.358 308.286, 232.813 307.496, 214 307.525 C 189.867 307.563, 174.219 311.255, 158.991 320.505 C 153.110 324.078, 140 335.526, 140 337.089 C 140 337.631, 182.528 338, 245.142 338 L 350.285 338 349.682 332.234 C 347.556 311.896, 333.804 292.131, 315.105 282.540 L 311.710 280.798 312.278 285.033 M 96.461 365.250 C 96.735 366.488, 98.126 372.832, 99.552 379.348 C 104.471 401.832, 115.804 429.714, 127.050 446.998 C 135.263 459.623, 148.913 474.996, 158.840 482.801 L 164.180 487 231.668 487 L 299.157 487 306.412 481.072 C 323.514 467.098, 340.081 443.913, 351.123 418.500 C 356.643 405.796, 360.870 401.463, 375.500 393.512 C 381.550 390.224, 388.403 385.790, 390.728 383.660 C 394.990 379.755, 399.186 372.252, 400.466 366.250 L 401.159 363 248.560 363 L 95.962 363 96.461 365.250" stroke="none" fill="black" fill-rule="evenodd"/>
</svg>