<svg xmlns="http://www.w3.org/2000/svg" width="512" height="512" viewBox="0 0 512 512" version="1.1">
	<path d="M 77 0.913 C 67.870 3.780, 58.655 12.222, 55.342 20.756 C 53.603 25.234, 53.472 31.751, 53 136.921 L 52.500 248.343 45.843 251.071 C 22.580 260.604, 4.888 283.086, 1.040 308 C 0.211 313.373, -0.030 340.032, 0.191 402 L 0.500 488.500 2.958 493.458 C 6.237 500.072, 11.971 505.626, 18.852 508.852 L 24.500 511.500 118 511.500 L 211.500 511.500 216.076 509.245 C 222.787 505.938, 228.171 500.927, 231.532 494.859 L 234.500 489.500 234.783 400 C 235.099 299.714, 235.315 303.249, 227.953 288.025 C 220.279 272.156, 208.474 260.172, 193.500 253.050 C 189.100 250.957, 184.713 248.979, 183.750 248.654 C 182.119 248.103, 182 245.062, 182 203.783 L 182 159.502 225.663 225.001 C 249.678 261.026, 270.040 291.059, 270.913 291.743 C 273.180 293.518, 276.637 294.308, 279.260 293.650 C 280.503 293.338, 290.740 287.011, 302.010 279.591 C 313.279 272.171, 322.796 266.415, 323.157 266.800 C 323.519 267.185, 344.345 298.480, 369.439 336.345 L 415.063 405.190 426.066 445.845 C 432.118 468.205, 437.956 488.334, 439.040 490.576 C 450.137 513.535, 480.406 518.927, 499.885 501.414 C 505.105 496.720, 510.906 486.742, 511.118 482.090 C 511.232 479.593, 511.264 479.607, 512 482.500 C 512.420 484.150, 512.707 445.900, 512.638 397.500 L 512.512 309.500 512.197 388.500 L 511.881 467.500 509.938 461.500 C 506.559 451.068, 503.362 447.951, 467.224 419.865 L 433.300 393.500 387.900 325.166 C 362.930 287.582, 342.149 256.210, 341.720 255.451 C 341.146 254.434, 345.281 251.167, 357.382 243.079 C 366.426 237.034, 374.540 231.068, 375.413 229.821 C 377.386 227.003, 377.446 222.763, 375.563 219.122 C 374.773 217.594, 346.051 174.079, 311.738 122.422 C 273.288 64.538, 247.863 27.198, 245.476 25.106 C 237.873 18.444, 227.793 15.863, 217.625 17.974 C 213.187 18.895, 208.866 21.175, 198.291 28.175 C 190.801 33.132, 184.133 37.395, 183.475 37.648 C 182.642 37.968, 182.126 36.004, 181.783 31.210 C 180.886 18.679, 174.050 8.228, 163.236 2.854 C 158.525 0.512, 158.291 0.499, 119 0.314 C 97.275 0.212, 78.375 0.481, 77 0.913 M 82.212 22.129 C 80.197 22.710, 78.166 24.320, 76.966 26.288 C 75.053 29.425, 75.007 32.031, 75.004 137.250 L 75 245 117.500 245 L 160 245 160 185.474 L 160 125.947 151.057 112.585 C 140.561 96.902, 138.536 91.705, 139.221 82.202 C 140.006 71.313, 146.370 61.620, 156.767 55.479 L 160 53.569 160 40.919 C 160 26.462, 158.947 23.913, 152.205 22.040 C 147.527 20.741, 86.757 20.818, 82.212 22.129 M 206.895 48.306 C 169.727 72.335, 162.244 77.731, 161.043 81.368 C 160.138 84.113, 160.196 85.519, 161.325 88.164 C 162.502 90.924, 277.717 264.980, 279.841 267.208 C 280.787 268.200, 351.081 221.739, 350.600 220.440 C 350.385 219.857, 323.608 179.315, 291.095 130.346 C 250.240 68.811, 231.199 40.956, 229.444 40.157 C 224.295 37.810, 221.653 38.765, 206.895 48.306 M 61.275 268.539 C 43.131 273.426, 27.942 288.642, 22.881 307 C 21.956 310.356, 21.543 332.341, 21.258 393.500 C 21.047 438.600, 21.167 477.486, 21.523 479.913 C 21.953 482.839, 23.127 485.281, 25.009 487.163 L 27.846 490 117.407 490 L 206.968 490 210.234 487.082 L 213.500 484.165 213.788 400.832 C 213.986 343.396, 213.733 315.494, 212.972 311.043 C 209.463 290.498, 192.150 272.265, 172.201 268.105 C 163.784 266.350, 68.011 266.725, 61.275 268.539 M 142.530 291.270 C 137.720 296.080, 137.628 300.828, 142.254 305.454 C 144.857 308.057, 146.637 308.849, 151.152 309.413 C 159.318 310.433, 165.443 314.607, 168.541 321.260 L 170.980 326.500 170.990 394.350 L 171 462.200 174.400 465.600 C 180.184 471.384, 188.498 469.838, 191.606 462.401 C 192.749 459.664, 192.999 447.508, 192.992 394.782 C 192.988 355.066, 192.587 328.049, 191.944 324.086 C 188.792 304.659, 172.490 289.437, 153.534 288.220 C 146.062 287.741, 146.058 287.742, 142.530 291.270 M 0.479 398.500 C 0.478 446.900, 0.600 466.846, 0.750 442.825 C 0.899 418.804, 0.899 379.204, 0.750 354.825 C 0.601 330.446, 0.479 350.100, 0.479 398.500 M 444.363 430.675 C 444.662 431.679, 447.674 442.850, 451.056 455.500 C 454.438 468.150, 458.112 480.134, 459.220 482.132 C 464.625 491.873, 480.754 492.772, 487.219 483.692 C 490.100 479.647, 490.840 470.525, 488.634 466.260 C 486.790 462.694, 482.407 458.893, 460.159 441.573 C 451.077 434.502, 444.060 429.661, 444.363 430.675" stroke="none" fill="black" fill-rule="evenodd"/>
</svg>